<?xml version="1.0" encoding="utf-8"?>
<!-- Generator: Adobe Illustrator 23.1.0, SVG Export Plug-In . SVG Version: 6.00 Build 0)  -->
<svg version="1.1" id="Layer_1" xmlns="http://www.w3.org/2000/svg" xmlns:xlink="http://www.w3.org/1999/xlink" x="0px" y="0px"
	 viewBox="0 0 356 434.2" style="enable-background:new 0 0 356 434.2;" xml:space="preserve">
<style type="text/css">
	.st0{fill:#FF3F00;}
</style>
<path class="st0" d="M135.9,66.4l-0.1,0.2c0,0-1,4.2,1.3,6.8c2.4,2.7,8.1,3.6,16,2.6c1-0.2,9.8-1.4,20.7,1.2
	c15.2,3.4,27.1,12.5,34.7,26c17.2,30.9-3.7,62.2-13.2,71.7c-9.5,9.5-40.9,30.4-71.7,13.2c-13.6-7.6-22.6-19.5-26-34.7
	c-2.5-10.9-1.3-19.7-1.2-20.7c1.1-7.9,0.1-13.6-2.6-16c-2.6-2.3-6.8-1.3-6.8-1.3l-0.2,0c-33.5,7.6-70.3,69.6-80.9,88.9l0,0
	c-0.2,0.4-1.3,2.4-3,5.5c0,0.1-0.1,0.1-0.1,0.1v0c-0.8,1.4-1.8,3.2-2.9,5c11.8,7.5,71.3,46.6,89.1,78.4c5.9,10.5,7.2,18,4.1,23.6
	c-4.4,8.1-16.2,8.8-28.7,9.5c-7.4,0.4-15,0.8-21.3,2.7c-10.5,3.1-23.7,13.6-27.6,29.2c-4.3,16.8,3.1,35.2,21.2,53.4
	c18.1,18.1,36.6,25.5,53.4,21.2c15.6-4,26.1-17.1,29.2-27.6c1.9-6.3,2.3-14,2.7-21.4c0.7-12.5,1.4-24.2,9.5-28.7
	c5.6-3.1,13.1-1.8,23.6,4.1c19.2,10.7,40.7,36.3,56.5,57.5c76.6-77.9,132.1-150.9,141-183.2c4.7-13.4,4.5-28.1-0.6-41.5
	c-11-34.7-70.1-111-150.1-191c-0.5-0.5-0.9-0.9-1.4-1.4C175,16.6,141.3,42.3,135.9,66.4z"/>
</svg>
